<?xml version="1.0" encoding="utf-8" standalone="no"?>
<!DOCTYPE svg PUBLIC "-//W3C//DTD SVG 1.1//EN"
  "http://www.w3.org/Graphics/SVG/1.1/DTD/svg11.dtd">
<svg xmlns:xlink="http://www.w3.org/1999/xlink" width="1000.8pt" height="424.8pt" viewBox="0 0 1000.8 424.8" xmlns="http://www.w3.org/2000/svg" version="1.1">
 <metadata>
  <rdf:RDF xmlns:dc="http://purl.org/dc/elements/1.1/" xmlns:cc="http://creativecommons.org/ns#" xmlns:rdf="http://www.w3.org/1999/02/22-rdf-syntax-ns#">
   <cc:Work>
    <dc:type rdf:resource="http://purl.org/dc/dcmitype/StillImage"/>
    <dc:date>2025-11-17T22:05:19.063158</dc:date>
    <dc:format>image/svg+xml</dc:format>
    <dc:creator>
     <cc:Agent>
      <dc:title>Matplotlib v3.10.7, https://matplotlib.org/</dc:title>
     </cc:Agent>
    </dc:creator>
   </cc:Work>
  </rdf:RDF>
 </metadata>
 <defs>
  <style type="text/css">*{stroke-linejoin: round; stroke-linecap: butt}</style>
 </defs>
 <g id="figure_1">
  <g id="patch_1">
   <path d="M 0 424.8 
L 1000.8 424.8 
L 1000.8 0 
L 0 0 
z
" style="fill: #ffffff"/>
  </g>
  <g id="axes_1">
   <g id="patch_2">
    <path d="M 810.411429 102.96 
L 796.32 108.09 
L 796.32 102.9942 
L 761.091429 102.9942 
L 761.091429 102.9258 
L 796.32 102.9258 
L 796.32 97.83 
z
" clip-path="url(#pa038226c8f)" style="stroke: #000000; stroke-linejoin: miter"/>
   </g>
   <g id="patch_3">
    <path d="M 683.588571 246.6 
L 669.497143 251.73 
L 669.497143 246.6342 
L 627.222857 246.6342 
L 627.222857 246.5658 
L 669.497143 246.5658 
L 669.497143 241.47 
z
" clip-path="url(#pa038226c8f)" style="stroke: #000000; stroke-width: 2; stroke-linejoin: miter"/>
   </g>
   <g id="patch_4">
    <path d="M 768.137143 332.1 
L 762.852857 321.84 
L 768.101914 321.84 
L 768.101914 294.48 
L 768.172371 294.48 
L 768.172371 321.84 
L 773.421429 321.84 
z
" clip-path="url(#pa038226c8f)" style="stroke: #000000; stroke-linejoin: miter"/>
   </g>
   <g id="patch_5">
    <path d="M 711.771429 219.24 
C 709.308504 219.24 706.856171 219.553429 704.477168 220.172269 
C 702.098166 220.791109 699.812955 221.710038 697.68 222.905545 
" clip-path="url(#pa038226c8f)" style="fill: none; stroke: #000000; stroke-width: 1.5; stroke-linejoin: miter"/>
   </g>
   <g id="line2d_1">
    <path d="M 162.205714 96.12 
L 162.205714 205.56 
" clip-path="url(#pa038226c8f)" style="fill: none; stroke: #000000; stroke-width: 2; stroke-linecap: square"/>
   </g>
   <g id="line2d_2">
    <path d="M 204.48 96.12 
L 204.48 205.56 
" clip-path="url(#pa038226c8f)" style="fill: none; stroke: #000000; stroke-width: 2; stroke-linecap: square"/>
   </g>
   <g id="line2d_3">
    <path d="M 162.205714 96.12 
L 169.251429 96.12 
" clip-path="url(#pa038226c8f)" style="fill: none; stroke: #000000; stroke-width: 2; stroke-linecap: square"/>
   </g>
   <g id="line2d_4">
    <path d="M 162.205714 205.56 
L 169.251429 205.56 
" clip-path="url(#pa038226c8f)" style="fill: none; stroke: #000000; stroke-width: 2; stroke-linecap: square"/>
   </g>
   <g id="line2d_5">
    <path d="M 197.434286 96.12 
L 204.48 96.12 
" clip-path="url(#pa038226c8f)" style="fill: none; stroke: #000000; stroke-width: 2; stroke-linecap: square"/>
   </g>
   <g id="line2d_6">
    <path d="M 197.434286 205.56 
L 204.48 205.56 
" clip-path="url(#pa038226c8f)" style="fill: none; stroke: #000000; stroke-width: 2; stroke-linecap: square"/>
   </g>
   <g id="line2d_7">
    <path d="M 500.4 267.12 
L 923.142857 267.12 
" clip-path="url(#pa038226c8f)" style="fill: none; stroke: #a52a2a; stroke-width: 4; stroke-linecap: square"/>
   </g>
   <g id="line2d_8">
    <path d="M 711.771429 246.6 
L 782.228571 128.127725 
" clip-path="url(#pa038226c8f)" style="fill: none; stroke: #ff0000; stroke-width: 4; stroke-linecap: square"/>
   </g>
   <g id="text_1">
    <!-- Cart-Pole: system definition -->
    <g transform="translate(310.575 41.4) scale(0.24 -0.24)">
     <defs>
      <path id="DejaVuSans-Bold-43" d="M 4288 256 
Q 3956 84 3597 -3 
Q 3238 -91 2847 -91 
Q 1681 -91 1000 561 
Q 319 1213 319 2328 
Q 319 3447 1000 4098 
Q 1681 4750 2847 4750 
Q 3238 4750 3597 4662 
Q 3956 4575 4288 4403 
L 4288 3438 
Q 3953 3666 3628 3772 
Q 3303 3878 2944 3878 
Q 2300 3878 1931 3465 
Q 1563 3053 1563 2328 
Q 1563 1606 1931 1193 
Q 2300 781 2944 781 
Q 3303 781 3628 887 
Q 3953 994 4288 1222 
L 4288 256 
z
" transform="scale(0.015625)"/>
      <path id="DejaVuSans-Bold-61" d="M 2106 1575 
Q 1756 1575 1579 1456 
Q 1403 1338 1403 1106 
Q 1403 894 1545 773 
Q 1688 653 1941 653 
Q 2256 653 2472 879 
Q 2688 1106 2688 1447 
L 2688 1575 
L 2106 1575 
z
M 3816 1997 
L 3816 0 
L 2688 0 
L 2688 519 
Q 2463 200 2181 54 
Q 1900 -91 1497 -91 
Q 953 -91 614 226 
Q 275 544 275 1050 
Q 275 1666 698 1953 
Q 1122 2241 2028 2241 
L 2688 2241 
L 2688 2328 
Q 2688 2594 2478 2717 
Q 2269 2841 1825 2841 
Q 1466 2841 1156 2769 
Q 847 2697 581 2553 
L 581 3406 
Q 941 3494 1303 3539 
Q 1666 3584 2028 3584 
Q 2975 3584 3395 3211 
Q 3816 2838 3816 1997 
z
" transform="scale(0.015625)"/>
      <path id="DejaVuSans-Bold-72" d="M 3138 2547 
Q 2991 2616 2845 2648 
Q 2700 2681 2553 2681 
Q 2122 2681 1889 2404 
Q 1656 2128 1656 1613 
L 1656 0 
L 538 0 
L 538 3500 
L 1656 3500 
L 1656 2925 
Q 1872 3269 2151 3426 
Q 2431 3584 2822 3584 
Q 2878 3584 2943 3579 
Q 3009 3575 3134 3559 
L 3138 2547 
z
" transform="scale(0.015625)"/>
      <path id="DejaVuSans-Bold-74" d="M 1759 4494 
L 1759 3500 
L 2913 3500 
L 2913 2700 
L 1759 2700 
L 1759 1216 
Q 1759 972 1856 886 
Q 1953 800 2241 800 
L 2816 800 
L 2816 0 
L 1856 0 
Q 1194 0 917 276 
Q 641 553 641 1216 
L 641 2700 
L 84 2700 
L 84 3500 
L 641 3500 
L 641 4494 
L 1759 4494 
z
" transform="scale(0.015625)"/>
      <path id="DejaVuSans-Bold-2d" d="M 347 2297 
L 2309 2297 
L 2309 1388 
L 347 1388 
L 347 2297 
z
" transform="scale(0.015625)"/>
      <path id="DejaVuSans-Bold-50" d="M 588 4666 
L 2584 4666 
Q 3475 4666 3951 4270 
Q 4428 3875 4428 3144 
Q 4428 2409 3951 2014 
Q 3475 1619 2584 1619 
L 1791 1619 
L 1791 0 
L 588 0 
L 588 4666 
z
M 1791 3794 
L 1791 2491 
L 2456 2491 
Q 2806 2491 2997 2661 
Q 3188 2831 3188 3144 
Q 3188 3456 2997 3625 
Q 2806 3794 2456 3794 
L 1791 3794 
z
" transform="scale(0.015625)"/>
      <path id="DejaVuSans-Bold-6f" d="M 2203 2784 
Q 1831 2784 1636 2517 
Q 1441 2250 1441 1747 
Q 1441 1244 1636 976 
Q 1831 709 2203 709 
Q 2569 709 2762 976 
Q 2956 1244 2956 1747 
Q 2956 2250 2762 2517 
Q 2569 2784 2203 2784 
z
M 2203 3584 
Q 3106 3584 3614 3096 
Q 4122 2609 4122 1747 
Q 4122 884 3614 396 
Q 3106 -91 2203 -91 
Q 1297 -91 786 396 
Q 275 884 275 1747 
Q 275 2609 786 3096 
Q 1297 3584 2203 3584 
z
" transform="scale(0.015625)"/>
      <path id="DejaVuSans-Bold-6c" d="M 538 4863 
L 1656 4863 
L 1656 0 
L 538 0 
L 538 4863 
z
" transform="scale(0.015625)"/>
      <path id="DejaVuSans-Bold-65" d="M 4031 1759 
L 4031 1441 
L 1416 1441 
Q 1456 1047 1700 850 
Q 1944 653 2381 653 
Q 2734 653 3104 758 
Q 3475 863 3866 1075 
L 3866 213 
Q 3469 63 3072 -14 
Q 2675 -91 2278 -91 
Q 1328 -91 801 392 
Q 275 875 275 1747 
Q 275 2603 792 3093 
Q 1309 3584 2216 3584 
Q 3041 3584 3536 3087 
Q 4031 2591 4031 1759 
z
M 2881 2131 
Q 2881 2450 2695 2645 
Q 2509 2841 2209 2841 
Q 1884 2841 1681 2658 
Q 1478 2475 1428 2131 
L 2881 2131 
z
" transform="scale(0.015625)"/>
      <path id="DejaVuSans-Bold-3a" d="M 716 3500 
L 1844 3500 
L 1844 2291 
L 716 2291 
L 716 3500 
z
M 716 1209 
L 1844 1209 
L 1844 0 
L 716 0 
L 716 1209 
z
" transform="scale(0.015625)"/>
      <path id="DejaVuSans-Bold-20" transform="scale(0.015625)"/>
      <path id="DejaVuSans-Bold-73" d="M 3272 3391 
L 3272 2541 
Q 2913 2691 2578 2766 
Q 2244 2841 1947 2841 
Q 1628 2841 1473 2761 
Q 1319 2681 1319 2516 
Q 1319 2381 1436 2309 
Q 1553 2238 1856 2203 
L 2053 2175 
Q 2913 2066 3209 1816 
Q 3506 1566 3506 1031 
Q 3506 472 3093 190 
Q 2681 -91 1863 -91 
Q 1516 -91 1145 -36 
Q 775 19 384 128 
L 384 978 
Q 719 816 1070 734 
Q 1422 653 1784 653 
Q 2113 653 2278 743 
Q 2444 834 2444 1013 
Q 2444 1163 2330 1236 
Q 2216 1309 1875 1350 
L 1678 1375 
Q 931 1469 631 1722 
Q 331 1975 331 2491 
Q 331 3047 712 3315 
Q 1094 3584 1881 3584 
Q 2191 3584 2531 3537 
Q 2872 3491 3272 3391 
z
" transform="scale(0.015625)"/>
      <path id="DejaVuSans-Bold-79" d="M 78 3500 
L 1197 3500 
L 2138 1125 
L 2938 3500 
L 4056 3500 
L 2584 -331 
Q 2363 -916 2067 -1148 
Q 1772 -1381 1288 -1381 
L 641 -1381 
L 641 -647 
L 991 -647 
Q 1275 -647 1404 -556 
Q 1534 -466 1606 -231 
L 1638 -134 
L 78 3500 
z
" transform="scale(0.015625)"/>
      <path id="DejaVuSans-Bold-6d" d="M 3781 2919 
Q 3994 3244 4286 3414 
Q 4578 3584 4928 3584 
Q 5531 3584 5847 3212 
Q 6163 2841 6163 2131 
L 6163 0 
L 5038 0 
L 5038 1825 
Q 5041 1866 5042 1909 
Q 5044 1953 5044 2034 
Q 5044 2406 4934 2573 
Q 4825 2741 4581 2741 
Q 4263 2741 4089 2478 
Q 3916 2216 3909 1719 
L 3909 0 
L 2784 0 
L 2784 1825 
Q 2784 2406 2684 2573 
Q 2584 2741 2328 2741 
Q 2006 2741 1831 2477 
Q 1656 2213 1656 1722 
L 1656 0 
L 531 0 
L 531 3500 
L 1656 3500 
L 1656 2988 
Q 1863 3284 2130 3434 
Q 2397 3584 2719 3584 
Q 3081 3584 3359 3409 
Q 3638 3234 3781 2919 
z
" transform="scale(0.015625)"/>
      <path id="DejaVuSans-Bold-64" d="M 2919 2988 
L 2919 4863 
L 4044 4863 
L 4044 0 
L 2919 0 
L 2919 506 
Q 2688 197 2409 53 
Q 2131 -91 1766 -91 
Q 1119 -91 703 423 
Q 288 938 288 1747 
Q 288 2556 703 3070 
Q 1119 3584 1766 3584 
Q 2128 3584 2408 3439 
Q 2688 3294 2919 2988 
z
M 2181 722 
Q 2541 722 2730 984 
Q 2919 1247 2919 1747 
Q 2919 2247 2730 2509 
Q 2541 2772 2181 2772 
Q 1825 2772 1636 2509 
Q 1447 2247 1447 1747 
Q 1447 1247 1636 984 
Q 1825 722 2181 722 
z
" transform="scale(0.015625)"/>
      <path id="DejaVuSans-Bold-66" d="M 2841 4863 
L 2841 4128 
L 2222 4128 
Q 1984 4128 1890 4042 
Q 1797 3956 1797 3744 
L 1797 3500 
L 2753 3500 
L 2753 2700 
L 1797 2700 
L 1797 0 
L 678 0 
L 678 2700 
L 122 2700 
L 122 3500 
L 678 3500 
L 678 3744 
Q 678 4316 997 4589 
Q 1316 4863 1984 4863 
L 2841 4863 
z
" transform="scale(0.015625)"/>
      <path id="DejaVuSans-Bold-69" d="M 538 3500 
L 1656 3500 
L 1656 0 
L 538 0 
L 538 3500 
z
M 538 4863 
L 1656 4863 
L 1656 3950 
L 538 3950 
L 538 4863 
z
" transform="scale(0.015625)"/>
      <path id="DejaVuSans-Bold-6e" d="M 4056 2131 
L 4056 0 
L 2931 0 
L 2931 347 
L 2931 1631 
Q 2931 2084 2911 2256 
Q 2891 2428 2841 2509 
Q 2775 2619 2662 2680 
Q 2550 2741 2406 2741 
Q 2056 2741 1856 2470 
Q 1656 2200 1656 1722 
L 1656 0 
L 538 0 
L 538 3500 
L 1656 3500 
L 1656 2988 
Q 1909 3294 2193 3439 
Q 2478 3584 2822 3584 
Q 3428 3584 3742 3212 
Q 4056 2841 4056 2131 
z
" transform="scale(0.015625)"/>
     </defs>
     <use xlink:href="#DejaVuSans-Bold-43"/>
     <use xlink:href="#DejaVuSans-Bold-61" transform="translate(73.388672 0)"/>
     <use xlink:href="#DejaVuSans-Bold-72" transform="translate(140.869141 0)"/>
     <use xlink:href="#DejaVuSans-Bold-74" transform="translate(190.185547 0)"/>
     <use xlink:href="#DejaVuSans-Bold-2d" transform="translate(237.988281 0)"/>
     <use xlink:href="#DejaVuSans-Bold-50" transform="translate(279.492188 0)"/>
     <use xlink:href="#DejaVuSans-Bold-6f" transform="translate(352.783203 0)"/>
     <use xlink:href="#DejaVuSans-Bold-6c" transform="translate(421.484375 0)"/>
     <use xlink:href="#DejaVuSans-Bold-65" transform="translate(455.761719 0)"/>
     <use xlink:href="#DejaVuSans-Bold-3a" transform="translate(523.583984 0)"/>
     <use xlink:href="#DejaVuSans-Bold-20" transform="translate(563.574219 0)"/>
     <use xlink:href="#DejaVuSans-Bold-73" transform="translate(598.388672 0)"/>
     <use xlink:href="#DejaVuSans-Bold-79" transform="translate(657.910156 0)"/>
     <use xlink:href="#DejaVuSans-Bold-73" transform="translate(723.095703 0)"/>
     <use xlink:href="#DejaVuSans-Bold-74" transform="translate(782.617188 0)"/>
     <use xlink:href="#DejaVuSans-Bold-65" transform="translate(830.419922 0)"/>
     <use xlink:href="#DejaVuSans-Bold-6d" transform="translate(898.242188 0)"/>
     <use xlink:href="#DejaVuSans-Bold-20" transform="translate(1002.441406 0)"/>
     <use xlink:href="#DejaVuSans-Bold-64" transform="translate(1037.255859 0)"/>
     <use xlink:href="#DejaVuSans-Bold-65" transform="translate(1108.837891 0)"/>
     <use xlink:href="#DejaVuSans-Bold-66" transform="translate(1176.660156 0)"/>
     <use xlink:href="#DejaVuSans-Bold-69" transform="translate(1220.166016 0)"/>
     <use xlink:href="#DejaVuSans-Bold-6e" transform="translate(1254.443359 0)"/>
     <use xlink:href="#DejaVuSans-Bold-69" transform="translate(1325.634766 0)"/>
     <use xlink:href="#DejaVuSans-Bold-74" transform="translate(1359.912109 0)"/>
     <use xlink:href="#DejaVuSans-Bold-69" transform="translate(1407.714844 0)"/>
     <use xlink:href="#DejaVuSans-Bold-6f" transform="translate(1441.992188 0)"/>
     <use xlink:href="#DejaVuSans-Bold-6e" transform="translate(1510.693359 0)"/>
    </g>
   </g>
   <g id="text_2">
    <!-- $x =$ -->
    <g transform="translate(118.994286 109.8) scale(0.16 -0.16)">
     <defs>
      <path id="DejaVuSans-Oblique-78" d="M 3841 3500 
L 2234 1784 
L 3219 0 
L 2559 0 
L 1819 1388 
L 531 0 
L -166 0 
L 1556 1844 
L 641 3500 
L 1300 3500 
L 1972 2234 
L 3144 3500 
L 3841 3500 
z
" transform="scale(0.015625)"/>
      <path id="DejaVuSans-3d" d="M 678 2906 
L 4684 2906 
L 4684 2381 
L 678 2381 
L 678 2906 
z
M 678 1631 
L 4684 1631 
L 4684 1100 
L 678 1100 
L 678 1631 
z
" transform="scale(0.015625)"/>
     </defs>
     <use xlink:href="#DejaVuSans-Oblique-78" transform="translate(0 0.3125)"/>
     <use xlink:href="#DejaVuSans-3d" transform="translate(78.662109 0.3125)"/>
    </g>
   </g>
   <g id="text_3">
    <!-- state -->
    <g transform="translate(117.716786 137.16) scale(0.12 -0.12)">
     <defs>
      <path id="DejaVuSans-73" d="M 2834 3397 
L 2834 2853 
Q 2591 2978 2328 3040 
Q 2066 3103 1784 3103 
Q 1356 3103 1142 2972 
Q 928 2841 928 2578 
Q 928 2378 1081 2264 
Q 1234 2150 1697 2047 
L 1894 2003 
Q 2506 1872 2764 1633 
Q 3022 1394 3022 966 
Q 3022 478 2636 193 
Q 2250 -91 1575 -91 
Q 1294 -91 989 -36 
Q 684 19 347 128 
L 347 722 
Q 666 556 975 473 
Q 1284 391 1588 391 
Q 1994 391 2212 530 
Q 2431 669 2431 922 
Q 2431 1156 2273 1281 
Q 2116 1406 1581 1522 
L 1381 1569 
Q 847 1681 609 1914 
Q 372 2147 372 2553 
Q 372 3047 722 3315 
Q 1072 3584 1716 3584 
Q 2034 3584 2315 3537 
Q 2597 3491 2834 3397 
z
" transform="scale(0.015625)"/>
      <path id="DejaVuSans-74" d="M 1172 4494 
L 1172 3500 
L 2356 3500 
L 2356 3053 
L 1172 3053 
L 1172 1153 
Q 1172 725 1289 603 
Q 1406 481 1766 481 
L 2356 481 
L 2356 0 
L 1766 0 
Q 1100 0 847 248 
Q 594 497 594 1153 
L 594 3053 
L 172 3053 
L 172 3500 
L 594 3500 
L 594 4494 
L 1172 4494 
z
" transform="scale(0.015625)"/>
      <path id="DejaVuSans-61" d="M 2194 1759 
Q 1497 1759 1228 1600 
Q 959 1441 959 1056 
Q 959 750 1161 570 
Q 1363 391 1709 391 
Q 2188 391 2477 730 
Q 2766 1069 2766 1631 
L 2766 1759 
L 2194 1759 
z
M 3341 1997 
L 3341 0 
L 2766 0 
L 2766 531 
Q 2569 213 2275 61 
Q 1981 -91 1556 -91 
Q 1019 -91 701 211 
Q 384 513 384 1019 
Q 384 1609 779 1909 
Q 1175 2209 1959 2209 
L 2766 2209 
L 2766 2266 
Q 2766 2663 2505 2880 
Q 2244 3097 1772 3097 
Q 1472 3097 1187 3025 
Q 903 2953 641 2809 
L 641 3341 
Q 956 3463 1253 3523 
Q 1550 3584 1831 3584 
Q 2591 3584 2966 3190 
Q 3341 2797 3341 1997 
z
" transform="scale(0.015625)"/>
      <path id="DejaVuSans-65" d="M 3597 1894 
L 3597 1613 
L 953 1613 
Q 991 1019 1311 708 
Q 1631 397 2203 397 
Q 2534 397 2845 478 
Q 3156 559 3463 722 
L 3463 178 
Q 3153 47 2828 -22 
Q 2503 -91 2169 -91 
Q 1331 -91 842 396 
Q 353 884 353 1716 
Q 353 2575 817 3079 
Q 1281 3584 2069 3584 
Q 2775 3584 3186 3129 
Q 3597 2675 3597 1894 
z
M 3022 2063 
Q 3016 2534 2758 2815 
Q 2500 3097 2075 3097 
Q 1594 3097 1305 2825 
Q 1016 2553 972 2059 
L 3022 2063 
z
" transform="scale(0.015625)"/>
     </defs>
     <use xlink:href="#DejaVuSans-73"/>
     <use xlink:href="#DejaVuSans-74" transform="translate(52.099609 0)"/>
     <use xlink:href="#DejaVuSans-61" transform="translate(91.308594 0)"/>
     <use xlink:href="#DejaVuSans-74" transform="translate(152.587891 0)"/>
     <use xlink:href="#DejaVuSans-65" transform="translate(191.796875 0)"/>
    </g>
   </g>
   <g id="text_4">
    <!-- $q_1$ -->
    <g transform="translate(175.572857 109.8) scale(0.14 -0.14)">
     <defs>
      <path id="DejaVuSans-Oblique-71" d="M 2669 525 
Q 2438 222 2123 65 
Q 1809 -91 1428 -91 
Q 897 -91 595 267 
Q 294 625 294 1253 
Q 294 1759 480 2231 
Q 666 2703 1013 3078 
Q 1238 3322 1530 3453 
Q 1822 3584 2144 3584 
Q 2531 3584 2781 3431 
Q 3031 3278 3144 2969 
L 3244 3494 
L 3822 3494 
L 2888 -1319 
L 2309 -1319 
L 2669 525 
z
M 891 1338 
Q 891 875 1084 633 
Q 1278 391 1644 391 
Q 2188 391 2572 911 
Q 2956 1431 2956 2175 
Q 2956 2625 2757 2864 
Q 2559 3103 2188 3103 
Q 1916 3103 1684 2976 
Q 1453 2850 1281 2606 
Q 1100 2350 995 2006 
Q 891 1663 891 1338 
z
" transform="scale(0.015625)"/>
      <path id="DejaVuSans-31" d="M 794 531 
L 1825 531 
L 1825 4091 
L 703 3866 
L 703 4441 
L 1819 4666 
L 2450 4666 
L 2450 531 
L 3481 531 
L 3481 0 
L 794 0 
L 794 531 
z
" transform="scale(0.015625)"/>
     </defs>
     <use xlink:href="#DejaVuSans-Oblique-71"/>
     <use xlink:href="#DejaVuSans-31" transform="translate(63.476562 -16.40625) scale(0.7)"/>
    </g>
   </g>
   <g id="text_5">
    <!-- cart horizontal position -->
    <g style="fill: #4063d8" transform="translate(253.8 109.8) scale(0.11 -0.11)">
     <defs>
      <path id="DejaVuSans-63" d="M 3122 3366 
L 3122 2828 
Q 2878 2963 2633 3030 
Q 2388 3097 2138 3097 
Q 1578 3097 1268 2742 
Q 959 2388 959 1747 
Q 959 1106 1268 751 
Q 1578 397 2138 397 
Q 2388 397 2633 464 
Q 2878 531 3122 666 
L 3122 134 
Q 2881 22 2623 -34 
Q 2366 -91 2075 -91 
Q 1284 -91 818 406 
Q 353 903 353 1747 
Q 353 2603 823 3093 
Q 1294 3584 2113 3584 
Q 2378 3584 2631 3529 
Q 2884 3475 3122 3366 
z
" transform="scale(0.015625)"/>
      <path id="DejaVuSans-72" d="M 2631 2963 
Q 2534 3019 2420 3045 
Q 2306 3072 2169 3072 
Q 1681 3072 1420 2755 
Q 1159 2438 1159 1844 
L 1159 0 
L 581 0 
L 581 3500 
L 1159 3500 
L 1159 2956 
Q 1341 3275 1631 3429 
Q 1922 3584 2338 3584 
Q 2397 3584 2469 3576 
Q 2541 3569 2628 3553 
L 2631 2963 
z
" transform="scale(0.015625)"/>
      <path id="DejaVuSans-20" transform="scale(0.015625)"/>
      <path id="DejaVuSans-68" d="M 3513 2113 
L 3513 0 
L 2938 0 
L 2938 2094 
Q 2938 2591 2744 2837 
Q 2550 3084 2163 3084 
Q 1697 3084 1428 2787 
Q 1159 2491 1159 1978 
L 1159 0 
L 581 0 
L 581 4863 
L 1159 4863 
L 1159 2956 
Q 1366 3272 1645 3428 
Q 1925 3584 2291 3584 
Q 2894 3584 3203 3211 
Q 3513 2838 3513 2113 
z
" transform="scale(0.015625)"/>
      <path id="DejaVuSans-6f" d="M 1959 3097 
Q 1497 3097 1228 2736 
Q 959 2375 959 1747 
Q 959 1119 1226 758 
Q 1494 397 1959 397 
Q 2419 397 2687 759 
Q 2956 1122 2956 1747 
Q 2956 2369 2687 2733 
Q 2419 3097 1959 3097 
z
M 1959 3584 
Q 2709 3584 3137 3096 
Q 3566 2609 3566 1747 
Q 3566 888 3137 398 
Q 2709 -91 1959 -91 
Q 1206 -91 779 398 
Q 353 888 353 1747 
Q 353 2609 779 3096 
Q 1206 3584 1959 3584 
z
" transform="scale(0.015625)"/>
      <path id="DejaVuSans-69" d="M 603 3500 
L 1178 3500 
L 1178 0 
L 603 0 
L 603 3500 
z
M 603 4863 
L 1178 4863 
L 1178 4134 
L 603 4134 
L 603 4863 
z
" transform="scale(0.015625)"/>
      <path id="DejaVuSans-7a" d="M 353 3500 
L 3084 3500 
L 3084 2975 
L 922 459 
L 3084 459 
L 3084 0 
L 275 0 
L 275 525 
L 2438 3041 
L 353 3041 
L 353 3500 
z
" transform="scale(0.015625)"/>
      <path id="DejaVuSans-6e" d="M 3513 2113 
L 3513 0 
L 2938 0 
L 2938 2094 
Q 2938 2591 2744 2837 
Q 2550 3084 2163 3084 
Q 1697 3084 1428 2787 
Q 1159 2491 1159 1978 
L 1159 0 
L 581 0 
L 581 3500 
L 1159 3500 
L 1159 2956 
Q 1366 3272 1645 3428 
Q 1925 3584 2291 3584 
Q 2894 3584 3203 3211 
Q 3513 2838 3513 2113 
z
" transform="scale(0.015625)"/>
      <path id="DejaVuSans-6c" d="M 603 4863 
L 1178 4863 
L 1178 0 
L 603 0 
L 603 4863 
z
" transform="scale(0.015625)"/>
      <path id="DejaVuSans-70" d="M 1159 525 
L 1159 -1331 
L 581 -1331 
L 581 3500 
L 1159 3500 
L 1159 2969 
Q 1341 3281 1617 3432 
Q 1894 3584 2278 3584 
Q 2916 3584 3314 3078 
Q 3713 2572 3713 1747 
Q 3713 922 3314 415 
Q 2916 -91 2278 -91 
Q 1894 -91 1617 61 
Q 1341 213 1159 525 
z
M 3116 1747 
Q 3116 2381 2855 2742 
Q 2594 3103 2138 3103 
Q 1681 3103 1420 2742 
Q 1159 2381 1159 1747 
Q 1159 1113 1420 752 
Q 1681 391 2138 391 
Q 2594 391 2855 752 
Q 3116 1113 3116 1747 
z
" transform="scale(0.015625)"/>
     </defs>
     <use xlink:href="#DejaVuSans-63"/>
     <use xlink:href="#DejaVuSans-61" transform="translate(54.980469 0)"/>
     <use xlink:href="#DejaVuSans-72" transform="translate(116.259766 0)"/>
     <use xlink:href="#DejaVuSans-74" transform="translate(157.373047 0)"/>
     <use xlink:href="#DejaVuSans-20" transform="translate(196.582031 0)"/>
     <use xlink:href="#DejaVuSans-68" transform="translate(228.369141 0)"/>
     <use xlink:href="#DejaVuSans-6f" transform="translate(291.748047 0)"/>
     <use xlink:href="#DejaVuSans-72" transform="translate(352.929688 0)"/>
     <use xlink:href="#DejaVuSans-69" transform="translate(394.042969 0)"/>
     <use xlink:href="#DejaVuSans-7a" transform="translate(421.826172 0)"/>
     <use xlink:href="#DejaVuSans-6f" transform="translate(474.316406 0)"/>
     <use xlink:href="#DejaVuSans-6e" transform="translate(535.498047 0)"/>
     <use xlink:href="#DejaVuSans-74" transform="translate(598.876953 0)"/>
     <use xlink:href="#DejaVuSans-61" transform="translate(638.085938 0)"/>
     <use xlink:href="#DejaVuSans-6c" transform="translate(699.365234 0)"/>
     <use xlink:href="#DejaVuSans-20" transform="translate(727.148438 0)"/>
     <use xlink:href="#DejaVuSans-70" transform="translate(758.935547 0)"/>
     <use xlink:href="#DejaVuSans-6f" transform="translate(822.412109 0)"/>
     <use xlink:href="#DejaVuSans-73" transform="translate(883.59375 0)"/>
     <use xlink:href="#DejaVuSans-69" transform="translate(935.693359 0)"/>
     <use xlink:href="#DejaVuSans-74" transform="translate(963.476562 0)"/>
     <use xlink:href="#DejaVuSans-69" transform="translate(1002.685547 0)"/>
     <use xlink:href="#DejaVuSans-6f" transform="translate(1030.46875 0)"/>
     <use xlink:href="#DejaVuSans-6e" transform="translate(1091.650391 0)"/>
    </g>
   </g>
   <g id="text_6">
    <!-- $q_2$ -->
    <g transform="translate(175.572857 137.16) scale(0.14 -0.14)">
     <defs>
      <path id="DejaVuSans-32" d="M 1228 531 
L 3431 531 
L 3431 0 
L 469 0 
L 469 531 
Q 828 903 1448 1529 
Q 2069 2156 2228 2338 
Q 2531 2678 2651 2914 
Q 2772 3150 2772 3378 
Q 2772 3750 2511 3984 
Q 2250 4219 1831 4219 
Q 1534 4219 1204 4116 
Q 875 4013 500 3803 
L 500 4441 
Q 881 4594 1212 4672 
Q 1544 4750 1819 4750 
Q 2544 4750 2975 4387 
Q 3406 4025 3406 3419 
Q 3406 3131 3298 2873 
Q 3191 2616 2906 2266 
Q 2828 2175 2409 1742 
Q 1991 1309 1228 531 
z
" transform="scale(0.015625)"/>
     </defs>
     <use xlink:href="#DejaVuSans-Oblique-71"/>
     <use xlink:href="#DejaVuSans-32" transform="translate(63.476562 -16.40625) scale(0.7)"/>
    </g>
   </g>
   <g id="text_7">
    <!-- pole angle -->
    <g style="fill: #4063d8" transform="translate(253.8 137.16) scale(0.11 -0.11)">
     <defs>
      <path id="DejaVuSans-67" d="M 2906 1791 
Q 2906 2416 2648 2759 
Q 2391 3103 1925 3103 
Q 1463 3103 1205 2759 
Q 947 2416 947 1791 
Q 947 1169 1205 825 
Q 1463 481 1925 481 
Q 2391 481 2648 825 
Q 2906 1169 2906 1791 
z
M 3481 434 
Q 3481 -459 3084 -895 
Q 2688 -1331 1869 -1331 
Q 1566 -1331 1297 -1286 
Q 1028 -1241 775 -1147 
L 775 -588 
Q 1028 -725 1275 -790 
Q 1522 -856 1778 -856 
Q 2344 -856 2625 -561 
Q 2906 -266 2906 331 
L 2906 616 
Q 2728 306 2450 153 
Q 2172 0 1784 0 
Q 1141 0 747 490 
Q 353 981 353 1791 
Q 353 2603 747 3093 
Q 1141 3584 1784 3584 
Q 2172 3584 2450 3431 
Q 2728 3278 2906 2969 
L 2906 3500 
L 3481 3500 
L 3481 434 
z
" transform="scale(0.015625)"/>
     </defs>
     <use xlink:href="#DejaVuSans-70"/>
     <use xlink:href="#DejaVuSans-6f" transform="translate(63.476562 0)"/>
     <use xlink:href="#DejaVuSans-6c" transform="translate(124.658203 0)"/>
     <use xlink:href="#DejaVuSans-65" transform="translate(152.441406 0)"/>
     <use xlink:href="#DejaVuSans-20" transform="translate(213.964844 0)"/>
     <use xlink:href="#DejaVuSans-61" transform="translate(245.751953 0)"/>
     <use xlink:href="#DejaVuSans-6e" transform="translate(307.03125 0)"/>
     <use xlink:href="#DejaVuSans-67" transform="translate(370.410156 0)"/>
     <use xlink:href="#DejaVuSans-6c" transform="translate(433.886719 0)"/>
     <use xlink:href="#DejaVuSans-65" transform="translate(461.669922 0)"/>
    </g>
   </g>
   <g id="text_8">
    <!-- $\dot{q}_1$ -->
    <g transform="translate(175.502857 164.52) scale(0.14 -0.14)">
     <defs>
      <path id="DejaVuSans-307" d="M -1894 4863 
L -1319 4863 
L -1319 4134 
L -1894 4134 
L -1894 4863 
z
M -1600 3584 
L -1600 3584 
z
" transform="scale(0.015625)"/>
     </defs>
     <use xlink:href="#DejaVuSans-307" transform="translate(64.462891 13.015625)"/>
     <use xlink:href="#DejaVuSans-Oblique-71" transform="translate(0 0.515625)"/>
     <use xlink:href="#DejaVuSans-31" transform="translate(64.433594 -15.890625) scale(0.7)"/>
    </g>
   </g>
   <g id="text_9">
    <!-- cart horizontal velocity -->
    <g style="fill: #4063d8" transform="translate(253.8 164.52) scale(0.11 -0.11)">
     <defs>
      <path id="DejaVuSans-76" d="M 191 3500 
L 800 3500 
L 1894 563 
L 2988 3500 
L 3597 3500 
L 2284 0 
L 1503 0 
L 191 3500 
z
" transform="scale(0.015625)"/>
      <path id="DejaVuSans-79" d="M 2059 -325 
Q 1816 -950 1584 -1140 
Q 1353 -1331 966 -1331 
L 506 -1331 
L 506 -850 
L 844 -850 
Q 1081 -850 1212 -737 
Q 1344 -625 1503 -206 
L 1606 56 
L 191 3500 
L 800 3500 
L 1894 763 
L 2988 3500 
L 3597 3500 
L 2059 -325 
z
" transform="scale(0.015625)"/>
     </defs>
     <use xlink:href="#DejaVuSans-63"/>
     <use xlink:href="#DejaVuSans-61" transform="translate(54.980469 0)"/>
     <use xlink:href="#DejaVuSans-72" transform="translate(116.259766 0)"/>
     <use xlink:href="#DejaVuSans-74" transform="translate(157.373047 0)"/>
     <use xlink:href="#DejaVuSans-20" transform="translate(196.582031 0)"/>
     <use xlink:href="#DejaVuSans-68" transform="translate(228.369141 0)"/>
     <use xlink:href="#DejaVuSans-6f" transform="translate(291.748047 0)"/>
     <use xlink:href="#DejaVuSans-72" transform="translate(352.929688 0)"/>
     <use xlink:href="#DejaVuSans-69" transform="translate(394.042969 0)"/>
     <use xlink:href="#DejaVuSans-7a" transform="translate(421.826172 0)"/>
     <use xlink:href="#DejaVuSans-6f" transform="translate(474.316406 0)"/>
     <use xlink:href="#DejaVuSans-6e" transform="translate(535.498047 0)"/>
     <use xlink:href="#DejaVuSans-74" transform="translate(598.876953 0)"/>
     <use xlink:href="#DejaVuSans-61" transform="translate(638.085938 0)"/>
     <use xlink:href="#DejaVuSans-6c" transform="translate(699.365234 0)"/>
     <use xlink:href="#DejaVuSans-20" transform="translate(727.148438 0)"/>
     <use xlink:href="#DejaVuSans-76" transform="translate(758.935547 0)"/>
     <use xlink:href="#DejaVuSans-65" transform="translate(818.115234 0)"/>
     <use xlink:href="#DejaVuSans-6c" transform="translate(879.638672 0)"/>
     <use xlink:href="#DejaVuSans-6f" transform="translate(907.421875 0)"/>
     <use xlink:href="#DejaVuSans-63" transform="translate(968.603516 0)"/>
     <use xlink:href="#DejaVuSans-69" transform="translate(1023.583984 0)"/>
     <use xlink:href="#DejaVuSans-74" transform="translate(1051.367188 0)"/>
     <use xlink:href="#DejaVuSans-79" transform="translate(1090.576172 0)"/>
    </g>
   </g>
   <g id="text_10">
    <!-- $\dot{q}_2$ -->
    <g transform="translate(175.502857 191.88) scale(0.14 -0.14)">
     <use xlink:href="#DejaVuSans-307" transform="translate(64.462891 13.015625)"/>
     <use xlink:href="#DejaVuSans-Oblique-71" transform="translate(0 0.515625)"/>
     <use xlink:href="#DejaVuSans-32" transform="translate(64.433594 -15.890625) scale(0.7)"/>
    </g>
   </g>
   <g id="text_11">
    <!-- pole angular rate -->
    <g style="fill: #4063d8" transform="translate(253.8 191.88) scale(0.11 -0.11)">
     <defs>
      <path id="DejaVuSans-75" d="M 544 1381 
L 544 3500 
L 1119 3500 
L 1119 1403 
Q 1119 906 1312 657 
Q 1506 409 1894 409 
Q 2359 409 2629 706 
Q 2900 1003 2900 1516 
L 2900 3500 
L 3475 3500 
L 3475 0 
L 2900 0 
L 2900 538 
Q 2691 219 2414 64 
Q 2138 -91 1772 -91 
Q 1169 -91 856 284 
Q 544 659 544 1381 
z
M 1991 3584 
L 1991 3584 
z
" transform="scale(0.015625)"/>
     </defs>
     <use xlink:href="#DejaVuSans-70"/>
     <use xlink:href="#DejaVuSans-6f" transform="translate(63.476562 0)"/>
     <use xlink:href="#DejaVuSans-6c" transform="translate(124.658203 0)"/>
     <use xlink:href="#DejaVuSans-65" transform="translate(152.441406 0)"/>
     <use xlink:href="#DejaVuSans-20" transform="translate(213.964844 0)"/>
     <use xlink:href="#DejaVuSans-61" transform="translate(245.751953 0)"/>
     <use xlink:href="#DejaVuSans-6e" transform="translate(307.03125 0)"/>
     <use xlink:href="#DejaVuSans-67" transform="translate(370.410156 0)"/>
     <use xlink:href="#DejaVuSans-75" transform="translate(433.886719 0)"/>
     <use xlink:href="#DejaVuSans-6c" transform="translate(497.265625 0)"/>
     <use xlink:href="#DejaVuSans-61" transform="translate(525.048828 0)"/>
     <use xlink:href="#DejaVuSans-72" transform="translate(586.328125 0)"/>
     <use xlink:href="#DejaVuSans-20" transform="translate(627.441406 0)"/>
     <use xlink:href="#DejaVuSans-72" transform="translate(659.228516 0)"/>
     <use xlink:href="#DejaVuSans-61" transform="translate(700.341797 0)"/>
     <use xlink:href="#DejaVuSans-74" transform="translate(761.621094 0)"/>
     <use xlink:href="#DejaVuSans-65" transform="translate(800.830078 0)"/>
    </g>
   </g>
   <g id="patch_6">
    <path d="M 669.497143 267.12 
L 754.045714 267.12 
L 754.045714 226.08 
L 669.497143 226.08 
z
" clip-path="url(#pa038226c8f)" style="fill: #4063d8; stroke: #000000; stroke-width: 2; stroke-linejoin: miter"/>
   </g>
   <g id="patch_7">
    <path d="M 782.228571 141.807725 
C 785.965662 141.807725 789.550194 140.366314 792.192716 137.800946 
C 794.835238 135.235577 796.32 131.755703 796.32 128.127725 
C 796.32 124.499746 794.835238 121.019872 792.192716 118.454504 
C 789.550194 115.889136 785.965662 114.447725 782.228571 114.447725 
C 778.491481 114.447725 774.906949 115.889136 772.264427 118.454504 
C 769.621905 121.019872 768.137143 124.499746 768.137143 128.127725 
C 768.137143 131.755703 769.621905 135.235577 772.264427 137.800946 
C 774.906949 140.366314 778.491481 141.807725 782.228571 141.807725 
z
" clip-path="url(#pa038226c8f)" style="fill: #8b0000; stroke: #8b0000; stroke-linejoin: miter"/>
   </g>
   <g id="text_12">
    <!-- $q_1$ -->
    <g transform="translate(704.001429 89.28) scale(0.14 -0.14)">
     <use xlink:href="#DejaVuSans-Oblique-71"/>
     <use xlink:href="#DejaVuSans-31" transform="translate(63.476562 -16.40625) scale(0.7)"/>
    </g>
   </g>
   <g id="text_13">
    <!-- $u$ -->
    <g transform="translate(601.605714 226.08) scale(0.14 -0.14)">
     <defs>
      <path id="DejaVuSans-Oblique-75" d="M 428 1388 
L 838 3500 
L 1416 3500 
L 1006 1409 
Q 975 1256 961 1147 
Q 947 1038 947 966 
Q 947 700 1109 554 
Q 1272 409 1569 409 
Q 2031 409 2368 721 
Q 2706 1034 2809 1563 
L 3194 3500 
L 3769 3500 
L 3091 0 
L 2516 0 
L 2631 550 
Q 2388 244 2052 76 
Q 1716 -91 1338 -91 
Q 878 -91 622 161 
Q 366 413 366 863 
Q 366 956 381 1097 
Q 397 1238 428 1388 
z
" transform="scale(0.015625)"/>
     </defs>
     <use xlink:href="#DejaVuSans-Oblique-75" transform="translate(0 0.3125)"/>
    </g>
   </g>
   <g id="text_14">
    <!-- control -->
    <g transform="translate(588.756808 246.6) scale(0.1 -0.1)">
     <use xlink:href="#DejaVuSans-63"/>
     <use xlink:href="#DejaVuSans-6f" transform="translate(54.980469 0)"/>
     <use xlink:href="#DejaVuSans-6e" transform="translate(116.162109 0)"/>
     <use xlink:href="#DejaVuSans-74" transform="translate(179.541016 0)"/>
     <use xlink:href="#DejaVuSans-72" transform="translate(218.75 0)"/>
     <use xlink:href="#DejaVuSans-6f" transform="translate(257.613281 0)"/>
     <use xlink:href="#DejaVuSans-6c" transform="translate(318.794922 0)"/>
    </g>
   </g>
   <g id="text_15">
    <!-- (force) -->
    <g transform="translate(589.595871 267.12) scale(0.1 -0.1)">
     <defs>
      <path id="DejaVuSans-28" d="M 1984 4856 
Q 1566 4138 1362 3434 
Q 1159 2731 1159 2009 
Q 1159 1288 1364 580 
Q 1569 -128 1984 -844 
L 1484 -844 
Q 1016 -109 783 600 
Q 550 1309 550 2009 
Q 550 2706 781 3412 
Q 1013 4119 1484 4856 
L 1984 4856 
z
" transform="scale(0.015625)"/>
      <path id="DejaVuSans-66" d="M 2375 4863 
L 2375 4384 
L 1825 4384 
Q 1516 4384 1395 4259 
Q 1275 4134 1275 3809 
L 1275 3500 
L 2222 3500 
L 2222 3053 
L 1275 3053 
L 1275 0 
L 697 0 
L 697 3053 
L 147 3053 
L 147 3500 
L 697 3500 
L 697 3744 
Q 697 4328 969 4595 
Q 1241 4863 1831 4863 
L 2375 4863 
z
" transform="scale(0.015625)"/>
      <path id="DejaVuSans-29" d="M 513 4856 
L 1013 4856 
Q 1481 4119 1714 3412 
Q 1947 2706 1947 2009 
Q 1947 1309 1714 600 
Q 1481 -109 1013 -844 
L 513 -844 
Q 928 -128 1133 580 
Q 1338 1288 1338 2009 
Q 1338 2731 1133 3434 
Q 928 4138 513 4856 
z
" transform="scale(0.015625)"/>
     </defs>
     <use xlink:href="#DejaVuSans-28"/>
     <use xlink:href="#DejaVuSans-66" transform="translate(39.013672 0)"/>
     <use xlink:href="#DejaVuSans-6f" transform="translate(74.21875 0)"/>
     <use xlink:href="#DejaVuSans-72" transform="translate(135.400391 0)"/>
     <use xlink:href="#DejaVuSans-63" transform="translate(174.263672 0)"/>
     <use xlink:href="#DejaVuSans-65" transform="translate(229.244141 0)"/>
     <use xlink:href="#DejaVuSans-29" transform="translate(290.767578 0)"/>
    </g>
   </g>
   <g id="text_16">
    <!-- $m_1$ -->
    <g transform="translate(787.62 287.64) scale(0.12 -0.12)">
     <defs>
      <path id="DejaVuSans-Oblique-6d" d="M 5747 2113 
L 5338 0 
L 4763 0 
L 5166 2094 
Q 5191 2228 5203 2325 
Q 5216 2422 5216 2491 
Q 5216 2772 5059 2928 
Q 4903 3084 4622 3084 
Q 4203 3084 3875 2770 
Q 3547 2456 3450 1953 
L 3066 0 
L 2491 0 
L 2900 2094 
Q 2925 2209 2937 2307 
Q 2950 2406 2950 2484 
Q 2950 2769 2794 2926 
Q 2638 3084 2363 3084 
Q 1938 3084 1609 2770 
Q 1281 2456 1184 1953 
L 800 0 
L 225 0 
L 909 3500 
L 1484 3500 
L 1375 2956 
Q 1609 3263 1923 3423 
Q 2238 3584 2597 3584 
Q 2978 3584 3223 3384 
Q 3469 3184 3519 2828 
Q 3781 3197 4126 3390 
Q 4472 3584 4856 3584 
Q 5306 3584 5551 3325 
Q 5797 3066 5797 2591 
Q 5797 2488 5784 2364 
Q 5772 2241 5747 2113 
z
" transform="scale(0.015625)"/>
     </defs>
     <use xlink:href="#DejaVuSans-Oblique-6d"/>
     <use xlink:href="#DejaVuSans-31" transform="translate(97.412109 -16.40625) scale(0.7)"/>
    </g>
   </g>
   <g id="text_17">
    <!-- $g$ -->
    <g transform="translate(764.297143 315) scale(0.12 -0.12)">
     <defs>
      <path id="DejaVuSans-Oblique-67" d="M 3816 3500 
L 3219 434 
Q 3047 -456 2561 -893 
Q 2075 -1331 1253 -1331 
Q 950 -1331 690 -1286 
Q 431 -1241 206 -1147 
L 313 -588 
Q 525 -725 762 -790 
Q 1000 -856 1269 -856 
Q 1816 -856 2167 -557 
Q 2519 -259 2631 300 
L 2681 563 
Q 2441 288 2122 144 
Q 1803 0 1434 0 
Q 903 0 598 351 
Q 294 703 294 1319 
Q 294 1803 478 2267 
Q 663 2731 997 3091 
Q 1219 3328 1514 3456 
Q 1809 3584 2131 3584 
Q 2484 3584 2746 3420 
Q 3009 3256 3138 2956 
L 3238 3500 
L 3816 3500 
z
M 2950 2216 
Q 2950 2641 2750 2872 
Q 2550 3103 2181 3103 
Q 1953 3103 1747 3012 
Q 1541 2922 1394 2759 
Q 1156 2491 1023 2127 
Q 891 1763 891 1375 
Q 891 944 1092 712 
Q 1294 481 1672 481 
Q 2219 481 2584 976 
Q 2950 1472 2950 2216 
z
" transform="scale(0.015625)"/>
     </defs>
     <use xlink:href="#DejaVuSans-Oblique-67"/>
    </g>
   </g>
   <g id="text_18">
    <!-- $m_2$ -->
    <g transform="translate(803.365714 128.127725) scale(0.12 -0.12)">
     <use xlink:href="#DejaVuSans-Oblique-6d"/>
     <use xlink:href="#DejaVuSans-32" transform="translate(97.412109 -16.40625) scale(0.7)"/>
    </g>
   </g>
   <g id="text_19">
    <!-- $\ell$ -->
    <g transform="translate(768.137143 187.363862) scale(0.12 -0.12)">
     <defs>
      <path id="DejaVuSans-Oblique-2113" d="M 950 838 
Q 1078 213 1350 213 
Q 1531 213 1766 572 
L 2181 572 
Q 1994 253 1775 88 
Q 1538 -91 1319 -91 
Q 831 -91 634 344 
L 400 0 
L -88 0 
Q 250 459 500 888 
Q 469 1131 469 1397 
Q 469 1872 566 2347 
Q 931 4131 1256 4497 
Q 1481 4750 1866 4750 
Q 2256 4750 2256 4209 
Q 2253 3966 2197 3675 
Q 1972 2484 950 838 
z
M 947 1656 
Q 1531 2744 1709 3613 
Q 1803 4072 1803 4191 
Q 1803 4406 1725 4406 
Q 1384 4134 1081 2516 
Q 997 2063 947 1656 
z
" transform="scale(0.015625)"/>
     </defs>
     <use xlink:href="#DejaVuSans-Oblique-2113" transform="translate(0 0.78125)"/>
    </g>
   </g>
   <g id="text_20">
    <!-- $q_2$ -->
    <g transform="translate(676.542857 212.4) scale(0.12 -0.12)">
     <use xlink:href="#DejaVuSans-Oblique-71"/>
     <use xlink:href="#DejaVuSans-32" transform="translate(63.476562 -16.40625) scale(0.7)"/>
    </g>
   </g>
   <g id="patch_8">
    <path d="M 683.588571 277.38 
C 686.391389 277.38 689.079788 276.298942 691.06168 274.374916 
C 693.043572 272.450889 694.157143 269.840984 694.157143 267.12 
C 694.157143 264.399016 693.043572 261.789111 691.06168 259.865084 
C 689.079788 257.941058 686.391389 256.86 683.588571 256.86 
C 680.785754 256.86 678.097354 257.941058 676.115463 259.865084 
C 674.133571 261.789111 673.02 264.399016 673.02 267.12 
C 673.02 269.840984 674.133571 272.450889 676.115463 274.374916 
C 678.097354 276.298942 680.785754 277.38 683.588571 277.38 
z
" clip-path="url(#pa038226c8f)" style="stroke: #000000; stroke-linejoin: miter"/>
   </g>
   <g id="patch_9">
    <path d="M 739.954286 277.38 
C 742.757104 277.38 745.445503 276.298942 747.427394 274.374916 
C 749.409286 272.450889 750.522857 269.840984 750.522857 267.12 
C 750.522857 264.399016 749.409286 261.789111 747.427394 259.865084 
C 745.445503 257.941058 742.757104 256.86 739.954286 256.86 
C 737.151468 256.86 734.463069 257.941058 732.481177 259.865084 
C 730.499286 261.789111 729.385714 264.399016 729.385714 267.12 
C 729.385714 269.840984 730.499286 272.450889 732.481177 274.374916 
C 734.463069 276.298942 737.151468 277.38 739.954286 277.38 
z
" clip-path="url(#pa038226c8f)" style="stroke: #000000; stroke-linejoin: miter"/>
   </g>
  </g>
 </g>
 <defs>
  <clipPath id="pa038226c8f">
   <rect x="7.2" y="7.2" width="986.4" height="410.4"/>
  </clipPath>
 </defs>
</svg>
